# xmcd
#
# Track frame offsets: 
#        183
#        12580
#        26430
#        42353
#        58720
#        73695
#        88255
#        101380
#        116108
#        135698
#
# Disc length: 1970 seconds
#
# Revision: 5
# Processed by: cddbd v1.5.2PL0 Copyright (c) Steve Scherf et al.
# Submitted via: ExactAudioCopyFreeDBPlugin 1.0
#
DISCID=8a07b00a
DTITLE=Hank Williams, Jr. - Born to Boogie
DYEAR=1987
DGENRE=Country
TTITLE0=Born to Boogie
TTITLE1=Honky Tonk Women
TTITLE2=Young Country
TTITLE3=Keep Your Hands to Yourself
TTITLE4=Buck Naked
TTITLE5=Heaven Can't Be Found
TTITLE6=Thanks a Lot
TTITLE7=What It Boils Down To
TTITLE8=Shadow Face
TTITLE9=Practice What I Preach
EXTD=
EXTT0=
EXTT1=
EXTT2=
EXTT3=
EXTT4=
EXTT5=
EXTT6=
EXTT7=
EXTT8=
EXTT9=
PLAYORDER=
